PathFileType	4	(X/Y/Z)	DARI_DATA/Captury_Subj2_bilateral_squat03.trc
DataRate	CameraRate	NumFrames	NumMarkers	Units	OrigDataRate	OrigDataStartFrame	OrigNumFrames
60	60	8	47	mm	60.00239944458008	32	249
Frame#	Time		LeftUpLeg_		RightUpLeg_		LeftLeg_		RightLeg_		LeftFoot_		RightFoot_		LeftToeBase_		RightToeBase_		Knee_Lateral_r		Knee_Lateral_l		Ankle_Lateral_r		Ankle_Lateral_l		LeftArm_		LeftForeArm_		LeftHand_		LeftHandEE		RightArm_		RightForeArm_		RightHand_		RightHandEE		Spine_		Spine1_		Spine2_		Spine3_		Spine4_		Spine5_		Spine_x		Spine_y		Spine_z		RASI		LASI		RIPS		LIPS		RTHI		LTHI		RTIB		LTIB		RTOE		LTOE		RHEE		LHEE		RHipAngles		LHipAngles		RKneeAngles		LKneeAngles		RAnkleAngles		LAnkleAngles
			X1	Y1	Z1	X2	Y2	Z2	X3	Y3	Z3	X4	Y4	Z4	X5	Y5	Z5	X6	Y6	Z6	X7	Y7	Z7	X8	Y8	Z8	X9	Y9	Z9	X10	Y10	Z10	X11	Y11	Z11	X12	Y12	Z12	X13	Y13	Z13	X14	Y14	Z14	X15	Y15	Z15	X16	Y16	Z16	X17	Y17	Z17	X18	Y18	Z18	X19	Y19	Z19	X20	Y20	Z20	X21	Y21	Z21	X22	Y22	Z22	X23	Y23	Z23	X24	Y24	Z24	X25	Y25	Z25	X26	Y26	Z26	X27	Y27	Z27	X28	Y28	Z28	X29	Y29	Z29	X30	Y30	Z30	X31	Y31	Z31	X32	Y32	Z32	X33	Y33	Z33	X34	Y34	Z34	X35	Y35	Z35	X36	Y36	Z36	X37	Y37	Z37	X38	Y38	Z38	X39	Y39	Z39	X40	Y40	Z40	X41	Y41	Z41	X42	Y42	Z42	X43	Y43	Z43	X44	Y44	Z44	X45	Y45	Z45	X46	Y46	Z46	X47	Y47	Z47

32	0.51667	8.86925	865.30096	-7.15121	177.53503	865.81744	-1.00228	-31.85271	459.07428	-27.38696	228.35254	461.34393	-31.11301	-78.01084	85.51813	-1.61306	286.30545	90.45889	6.63394	-93.69845	24.08592	-113.74295	299.83380	22.26762	-101.80991	275.04211	465.00348	-33.93241	-78.60262	461.51044	-30.51253	333.64075	98.85339	22.20302	-125.76754	91.42422	13.81129	-43.32607	1361.72363	-0.24217	-106.07185	1347.84485	-255.42026	-84.77663	1376.81787	-478.28265	-79.23627	1376.26440	-560.47974	224.85977	1352.71423	-3.19478	275.71997	1342.88757	-261.19128	257.81305	1376.54797	-483.69269	252.38121	1389.65662	-564.84698	92.34400	959.03015	11.61080	92.75312	1055.30261	-0.92359	92.37385	1123.14917	16.42635	91.39228	1201.70496	60.39076	91.74107	1333.27954	75.68236	-0.00000	0.00000	-0.00000	139.75932	959.17535	13.33939	92.25434	1006.45264	10.08684	90.61165	960.54980	59.00185	238.80139	927.36499	-96.02758	-45.69051	926.49384	-106.39910	129.29063	931.60461	42.34268	53.42613	931.37231	39.57694	267.26105	682.77039	-16.02550	-76.25966	679.78076	-18.01328	291.12582	297.66913	-30.84663	-92.81277	237.34222	-33.53028	303.51270	13.46900	-173.80318	-97.13182	12.50909	-185.35419	292.20575	36.23051	66.13422	-90.86794	29.28197	54.84933	-4.75460	4.01171	-5.68891	-3.38624	3.10348	-1.80173	-4.24960	0.94112	0.08930	-1.02322	0.69297	0.03713	10.90573	5.54985	1.69590	9.45594	5.54427	8.95548
33	0.53333	8.87640	865.47015	-7.26857	177.53400	865.98364	-0.89884	-32.00405	459.25204	-27.35765	228.25183	461.51654	-31.26245	-78.14500	85.68292	-1.74081	286.16885	90.63861	6.60873	-93.59397	24.04637	-113.79166	299.76181	22.21319	-101.67938	274.93811	465.17056	-34.14294	-78.74287	461.71140	-30.62753	333.52249	99.06502	22.10458	-125.94355	91.61401	13.54369	-43.44646	1361.73755	-0.23990	-106.43954	1347.90784	-255.35971	-84.74148	1377.11255	-478.15295	-78.77474	1376.35413	-560.31854	224.80186	1352.78442	-3.37369	275.27832	1342.91418	-261.44385	257.20935	1376.50818	-483.94220	252.04747	1389.58521	-565.11920	92.32651	959.19025	11.64782	92.75787	1055.39746	-0.87541	92.37407	1123.17786	16.46334	91.38960	1201.67749	60.39715	91.74010	1333.19177	75.62720	-0.00000	0.00000	-0.00000	139.73953	959.33459	13.43848	92.23882	1006.61346	10.14663	90.53218	960.68707	59.03728	238.92455	927.57703	-95.81421	-45.55354	926.71094	-106.55816	129.23294	931.74988	42.41474	53.37211	931.51892	39.54969	267.21295	682.93042	-16.12621	-76.31962	679.98877	-18.26672	290.98801	297.82758	-30.98943	-92.89342	237.50581	-33.68860	303.32883	13.27015	-173.66046	-96.83516	12.34218	-185.39114	292.41049	36.59454	66.24171	-91.23863	29.57751	54.79726	-4.75489	3.99556	-5.83854	-3.31807	3.12940	-1.90107	-4.30621	0.93295	0.08746	-0.97866	0.65135	0.05343	11.01369	5.54971	1.94371	9.57225	5.54650	9.03842
34	0.55000	9.09314	865.60278	-7.14082	177.74489	866.16803	-0.62167	-31.76568	459.39554	-27.49116	228.16846	461.68964	-31.32305	-78.28040	85.86694	-1.95991	286.14337	90.82233	6.56356	-93.57634	24.05353	-113.93431	299.68051	22.21780	-101.61820	274.84973	465.31967	-34.31299	-78.49486	461.86017	-30.89235	333.52936	99.27892	21.94375	-126.11343	91.87160	13.18744	-43.50365	1361.67529	-0.50919	-106.93593	1347.84302	-255.52003	-84.56627	1377.43787	-478.19537	-77.90381	1376.36792	-560.30402	224.58743	1352.70239	-3.53115	274.83441	1342.73962	-261.64255	256.80621	1376.49268	-484.12012	251.69829	1389.54089	-565.30518	92.50047	959.36078	11.77635	92.90926	1055.54651	-0.80355	92.48193	1123.32068	16.50156	91.42762	1201.82092	60.40489	91.67126	1333.32556	75.59651	-0.00000	0.00000	-0.00000	139.91183	959.51971	13.60902	92.40099	1006.78278	10.23798	90.66362	960.89417	59.16302	239.20270	927.70422	-95.53065	-45.26553	926.75079	-106.52662	129.38715	931.95471	42.59751	53.52895	931.70050	39.66525	267.28693	683.07397	-16.16115	-76.08759	680.13281	-18.44644	290.89316	297.99615	-31.12668	-92.81761	237.69815	-33.96486	303.07028	13.16231	-173.59381	-96.61714	12.31662	-185.53723	292.75723	36.92878	66.29258	-91.69878	29.91051	54.64964	-4.83548	3.93550	-6.02101	-3.38154	3.14982	-2.01178	-4.36146	0.95662	0.09178	-1.00865	0.69090	0.05616	11.10038	5.55002	2.16072	9.67460	5.54606	9.14871
35	0.56667	9.03111	865.66107	-6.79173	177.69003	866.20886	-0.46038	-31.72527	459.45560	-27.38122	228.08418	461.74127	-31.35233	-78.36414	85.91425	-2.26649	286.18518	90.89340	6.53173	-93.65869	24.08216	-114.23077	299.44772	22.13554	-101.58669	274.75146	465.38278	-34.53999	-78.45153	461.91248	-30.82764	333.63187	99.37459	21.70988	-126.21205	91.94249	12.82431	-43.52406	1361.52026	-0.57875	-106.93562	1347.95618	-255.60915	-84.18379	1377.63196	-478.23499	-77.12435	1376.31848	-560.30695	224.60144	1352.63574	-3.72810	274.67532	1342.67590	-261.87323	256.50186	1376.39075	-484.34479	251.40219	1389.47168	-565.52515	92.47353	959.43005	11.91525	92.87678	1055.52942	-0.75091	92.46569	1123.23853	16.50484	91.44104	1201.67944	60.36776	91.68427	1333.11292	75.51812	-0.00000	0.00000	-0.00000	139.88692	959.58405	13.69511	92.37950	1006.85010	10.31748	90.68948	961.02313	59.30196	239.05180	927.61652	-95.51461	-45.42854	926.69263	-106.19382	129.39023	932.05707	42.72983	53.52880	931.81073	39.88204	267.21121	683.13629	-16.36844	-76.10080	680.17944	-18.27266	290.79706	298.04315	-31.30787	-92.82451	237.77985	-34.14283	302.52881	12.98034	-173.56355	-96.61454	12.34310	-185.83691	293.25842	37.13232	66.32747	-92.02502	30.02627	54.35266	-4.90437	3.94661	-6.19847	-3.48246	3.13010	-2.13077	-4.39368	0.93572	0.09840	-0.98277	0.71859	0.04441	11.15862	5.55050	2.35776	9.75576	5.54351	9.28961
36	0.58333	9.00536	865.63922	-6.88133	177.66263	866.17291	-0.50487	-31.66430	459.43225	-27.61180	227.99950	461.69843	-31.39822	-78.32970	85.91943	-2.12462	286.06857	90.85352	6.56259	-93.73637	23.91994	-113.98090	299.47754	22.04929	-101.50824	274.66699	465.33362	-34.59018	-78.39172	461.87997	-31.04879	333.51483	99.34167	21.73819	-126.17563	91.97990	12.95953	-43.57431	1361.44275	-0.61977	-106.64110	1347.99146	-255.74161	-83.84911	1377.72546	-478.35553	-76.31175	1376.47583	-560.38599	224.52203	1352.57776	-3.79812	274.25986	1342.46680	-262.00238	256.16467	1376.35376	-484.45416	251.62997	1389.48218	-565.66034	92.44698	959.38513	11.94425	92.85657	1055.48364	-0.67228	92.44083	1123.18164	16.59690	91.40351	1201.61914	60.45093	91.63003	1333.04993	75.56052	-0.00000	0.00000	-0.00000	139.85989	959.53516	13.73680	92.35547	1006.80676	10.39530	90.65049	960.92950	59.33212	239.05223	927.67578	-95.47960	-45.42534	926.77551	-106.23489	129.35432	931.97882	42.74038	53.49365	931.73871	39.87230	267.15771	683.08820	-16.41968	-76.08732	680.14288	-18.41449	290.69861	297.99506	-31.31916	-92.77997	237.75436	-34.15131	302.54077	12.86621	-173.48232	-96.69459	12.06674	-185.56812	293.34177	37.16266	66.39741	-92.14384	30.16805	54.59193	-4.84526	3.94258	-6.21864	-3.44567	3.11408	-2.10490	-4.40553	0.93770	0.10390	-1.06108	0.72966	0.03154	11.18336	5.55090	2.54046	9.79836	5.54031	9.42256
37	0.60000	8.94233	865.58826	-6.70676	177.60342	866.11102	-0.43068	-31.95087	459.41162	-27.59312	227.98631	461.64420	-31.35123	-78.49263	85.87759	-2.19097	285.99643	90.78409	6.55285	-93.79390	23.89348	-114.07023	299.38293	22.00313	-101.53560	274.64877	465.28909	-34.60500	-78.67236	461.88901	-31.08933	333.46320	99.25769	21.67237	-126.36147	91.91753	12.82864	-43.60709	1361.23926	-0.50712	-106.15307	1348.10022	-255.77341	-83.60135	1377.78064	-478.41901	-75.69852	1376.70776	-560.41754	224.49532	1352.47852	-3.88555	273.98462	1342.36877	-262.13757	256.00897	1376.36560	-484.58228	251.59720	1389.35449	-565.81769	92.40063	959.32611	12.08521	92.80991	1055.39648	-0.53662	92.41237	1123.06958	16.71880	91.41708	1201.49219	60.54667	91.66520	1332.90137	75.60258	-0.00000	0.00000	-0.00000	139.81464	959.47308	13.84954	92.31097	1006.74805	10.54446	90.63247	960.86249	59.47440	238.94003	927.62659	-95.43141	-45.54395	926.74481	-106.01738	129.32472	931.91235	42.85464	53.46233	931.67719	40.03171	267.11673	683.04388	-16.44565	-76.24973	680.14728	-18.39630	290.63962	297.92322	-31.34109	-92.96381	237.70825	-34.22833	302.33783	12.84549	-173.51746	-96.63760	12.08131	-185.66887	293.50620	37.11650	66.37933	-92.47606	30.14722	54.50474	-4.82905	3.95669	-6.26032	-3.44780	3.14321	-2.21207	-4.40056	0.90950	0.11122	-1.06770	0.66941	0.02756	11.17786	5.55142	2.70044	9.80024	5.53728	9.52459
38	0.61667	8.87388	865.47198	-6.53740	177.52937	865.96533	-0.11052	-32.03166	459.26715	-26.84129	227.95657	461.51764	-31.20801	-78.50992	85.69095	-1.94885	286.08752	90.65781	6.51234	-93.71027	23.91139	-113.95494	299.36136	21.96398	-101.64536	274.61090	465.17593	-34.56182	-78.74902	461.74313	-30.39305	333.58398	99.12609	21.54132	-126.39925	91.69095	13.02133	-43.70687	1361.08875	-0.46540	-106.04469	1348.17053	-255.79385	-83.42462	1377.98010	-478.41522	-75.27886	1376.77930	-560.38818	224.39676	1352.33289	-3.93866	273.69537	1342.25842	-262.22858	255.70865	1376.42798	-484.64594	251.86588	1389.24255	-565.93793	92.33865	959.22607	12.14425	92.77911	1055.27954	-0.58652	92.38203	1122.96130	16.62562	91.37745	1201.38721	60.44282	91.61710	1332.79089	75.52614	-0.00000	0.00000	-0.00000	139.75107	959.36475	13.95097	92.26222	1006.64490	10.50961	90.52822	960.85663	59.52869	238.96680	927.27759	-95.17746	-45.50774	926.44543	-106.01781	129.22818	931.86407	43.00108	53.36830	931.64215	40.11031	267.05823	682.92560	-16.34948	-76.32137	680.02051	-18.03466	290.63007	297.80450	-31.35224	-92.98045	237.55672	-33.81962	302.15482	12.87932	-173.64290	-96.45935	12.22482	-185.57788	293.86444	36.97559	66.29154	-92.63680	29.88020	54.63211	-4.95180	3.97305	-6.43422	-3.47323	3.13452	-2.22365	-4.39980	0.90068	0.12133	-0.90854	0.66199	0.02976	11.15141	5.55213	2.82587	9.77021	5.53571	9.60328
39	0.63333	8.58465	865.37585	-6.25960	177.23477	865.70819	0.31662	-32.18574	459.19348	-27.27389	227.85971	461.30862	-31.08457	-78.72505	85.67740	-1.60484	286.13757	90.45645	6.48461	-93.82919	23.75439	-113.54471	299.56763	21.90329	-101.74306	274.51352	464.99112	-34.41903	-78.89807	461.66336	-30.89544	333.62430	98.92684	21.54312	-126.63484	91.69888	13.29107	-43.76038	1360.88623	-0.08712	-105.65057	1348.21680	-255.53694	-83.37871	1378.05420	-478.18970	-75.41282	1377.17419	-560.18445	224.37181	1352.27905	-4.01243	273.51282	1342.13477	-262.32959	255.61348	1376.40930	-484.73785	251.73831	1389.33057	-566.01141	92.12054	959.04266	12.54164	92.66177	1055.11450	-0.20413	92.31955	1122.82727	16.97174	91.38469	1201.31702	60.71688	91.70381	1332.75952	75.64277	-0.00000	0.00000	-0.00000	139.53145	959.13611	14.39035	92.08993	1006.46234	10.93012	90.26972	960.65179	59.92526	238.81360	927.00934	-94.66599	-45.65188	926.44873	-105.75824	128.95715	931.63110	43.41769	53.09969	931.48157	40.45976	266.85385	682.72272	-16.03627	-76.54530	679.92151	-18.18618	290.60614	297.62344	-31.27769	-93.14203	237.47235	-33.83529	302.38043	12.92362	-173.75302	-96.48198	11.97177	-185.15555	294.02960	36.72997	66.20895	-93.00598	29.96564	55.03497	-4.96363	4.05119	-6.46837	-3.54149	3.06781	-2.26134	-4.41808	0.89830	0.12729	-1.12945	0.66386	0.03289	11.11447	5.55253	2.93121	9.72193	5.53743	9.67265
